<svg width="46" height="46" viewBox="0 0 46 46" fill="none" xmlns="http://www.w3.org/2000/svg">
<g id="circum:gift">
<path id="Vector" d="M36.7734 11.0839H32.3645C32.5345 10.4603 32.5366 9.80295 32.3707 9.17832C32.2048 8.5537 31.8767 7.98403 31.4197 7.52706C30.7196 6.84118 29.7785 6.45703 28.7984 6.45703C27.8183 6.45703 26.8772 6.84118 26.1771 7.52706L23.0001 10.7115L19.8323 7.52706C19.4882 7.18258 19.0796 6.9093 18.6298 6.72285C18.18 6.5364 17.6979 6.44043 17.211 6.44043C16.7241 6.44043 16.242 6.5364 15.7922 6.72285C15.3424 6.9093 14.9338 7.18258 14.5897 7.52706C14.1327 7.98403 13.8046 8.5537 13.6387 9.17832C13.4728 9.80295 13.475 10.4603 13.645 11.0839H9.22675C8.48978 11.0839 7.78299 11.3766 7.26188 11.8977C6.74076 12.4189 6.448 13.1256 6.448 13.8626V15.7151C6.44827 16.2655 6.61342 16.8032 6.92215 17.2589C7.23087 17.7145 7.66902 18.0672 8.18009 18.2716V34.9255C8.18351 36.1528 8.67254 37.3288 9.54033 38.1965C10.4081 39.0643 11.5841 39.5534 12.8113 39.5568H33.1888C34.4171 39.5568 35.5951 39.0688 36.4636 38.2003C37.3321 37.3318 37.8201 36.1538 37.8201 34.9255V18.2901C38.3326 18.0814 38.7717 17.7254 39.0817 17.267C39.3917 16.8086 39.5586 16.2685 39.5614 15.7151V13.8626C39.5614 13.4969 39.4893 13.1348 39.349 12.7971C39.2088 12.4593 39.0033 12.1526 38.7443 11.8945C38.4853 11.6363 38.1779 11.4318 37.8396 11.2927C37.5014 11.1536 37.1391 11.0826 36.7734 11.0839ZM15.8957 8.84048C16.2428 8.49545 16.7124 8.30179 17.2018 8.30179C17.6912 8.30179 18.1607 8.49545 18.5078 8.84048L20.7493 11.0839H15.6179C15.4066 10.7327 15.3192 10.3209 15.3696 9.9142C15.42 9.50752 15.6052 9.12947 15.8957 8.84048ZM21.1476 37.7043H12.8113C12.0744 37.7043 11.3676 37.4115 10.8465 36.8904C10.3253 36.3693 10.0326 35.6625 10.0326 34.9255V18.4939H21.1476V37.7043ZM21.1476 16.6414H9.22675C8.98109 16.6414 8.7455 16.5438 8.57179 16.3701C8.39808 16.1964 8.3005 15.9608 8.3005 15.7151V13.8626C8.3005 13.6169 8.39808 13.3814 8.57179 13.2076C8.7455 13.0339 8.98109 12.9364 9.22675 12.9364H21.1476V16.6414ZM27.5017 8.84048C27.8203 8.52371 28.2432 8.33354 28.6916 8.30538C29.14 8.27721 29.5834 8.41298 29.9392 8.68739C30.2949 8.9618 30.5388 9.35616 30.6255 9.79703C30.7121 10.2379 30.6356 10.6952 30.4101 11.0839H25.2601L27.5017 8.84048ZM35.9676 34.9255C35.9676 35.6625 35.6748 36.3693 35.1537 36.8904C34.6326 37.4115 33.9258 37.7043 33.1888 37.7043H24.8526V18.4939H35.9676V34.9255ZM37.7089 15.7151C37.7089 15.9608 37.6113 16.1964 37.4376 16.3701C37.2639 16.5438 37.0283 16.6414 36.7827 16.6414H24.8526V12.9364H36.7827C37.0283 12.9364 37.2639 13.0339 37.4376 13.2076C37.6113 13.3814 37.7089 13.6169 37.7089 13.8626V15.7151Z" fill="#704174"/>
</g>
</svg>
