<svg width="175" height="60" viewBox="0 0 175 60" fill="none" xmlns="http://www.w3.org/2000/svg">
<path d="M94.4649 49.8382C92.4908 48.1396 90.5856 46.3262 88.7493 44.398C86.9588 42.4239 85.2831 40.404 83.7222 38.3381C82.2073 36.2722 80.807 34.1833 79.5216 32.0715C78.2821 29.9138 77.2261 27.802 76.3539 25.7361C74.793 27.4347 73.2321 29.1563 71.6712 30.9008C70.1562 32.5994 68.8019 34.321 67.6082 36.0656C66.4146 37.7642 65.4505 39.4858 64.716 41.2303C63.9355 42.9289 63.5453 44.6276 63.5453 46.3262C63.5453 48.3462 63.8896 50.0907 64.5783 51.5598C65.221 52.983 66.0933 54.1537 67.1951 55.0718C68.2969 55.99 69.5594 56.6557 70.9825 57.0689C72.4057 57.482 73.8748 57.6886 75.3898 57.6886C78.4198 57.6886 81.6334 56.977 85.0307 55.5539C88.4279 54.1307 91.5727 52.2255 94.4649 49.8382ZM85.9259 9.0023C85.9259 7.39549 85.5586 6.24777 84.8241 5.55914C84.1354 4.8246 83.3779 4.45733 82.5516 4.45733C81.8629 4.45733 81.1284 4.68687 80.3479 5.14596C79.6134 5.60505 78.9248 6.27073 78.282 7.14299C77.6852 7.96935 77.1802 8.97935 76.7671 10.173C76.3539 11.3666 76.1473 12.675 76.1473 14.0982C76.1473 16.715 76.6293 19.4925 77.5934 22.4306C78.7411 21.237 79.82 20.0663 80.83 18.9186C81.84 17.7709 82.7123 16.6461 83.4468 15.5443C84.2272 14.3966 84.8241 13.2948 85.2372 12.2389C85.6963 11.1371 85.9259 10.0582 85.9259 9.0023ZM112.438 59.2725C112.438 59.4102 112.346 59.5479 112.163 59.6857C111.979 59.8234 111.704 59.8923 111.336 59.8923C108.582 59.02 105.873 57.8034 103.211 56.2425C100.548 54.6357 97.954 52.7764 95.429 50.6646C93.6845 51.9959 91.8711 53.2125 89.9888 54.3143C88.1065 55.4161 86.1784 56.3573 84.2043 57.1377C82.2761 57.9182 80.325 58.515 78.3509 58.9282C76.4227 59.3414 74.5634 59.5479 72.773 59.5479C71.0285 59.5479 69.3757 59.2954 67.8148 58.7904C66.2539 58.3314 64.8996 57.6198 63.7519 56.6557C62.6042 55.6457 61.709 54.4062 61.0662 52.9371C60.3776 51.468 60.0333 49.7464 60.0333 47.7723C60.0333 45.6605 60.5153 43.5946 61.4794 41.5746C62.4435 39.5087 63.683 37.4887 65.198 35.5147C66.713 33.5406 68.3887 31.6124 70.225 29.7301C72.1073 27.8479 73.9437 26.0115 75.7341 24.2211C74.4028 20.6402 73.7371 17.4036 73.7371 14.5114C73.7371 12.8127 74.0355 11.2518 74.6323 9.82866C75.275 8.40549 76.0784 7.1889 77.0425 6.17891C78.0066 5.16891 79.0625 4.38846 80.2102 3.83756C81.4039 3.24074 82.5286 2.94233 83.5845 2.94233C84.8241 2.94233 85.9488 3.35551 86.9588 4.18187C87.9688 4.96232 88.4738 6.27072 88.4738 8.10708C88.4738 9.2548 88.1754 10.4484 87.5786 11.688C87.0277 12.9275 86.2702 14.213 85.3061 15.5443C84.3879 16.8298 83.2861 18.1841 82.0007 19.6072C80.7611 20.9845 79.4527 22.4077 78.0755 23.8768C79.5905 28.0545 81.84 32.301 84.8241 36.6165C87.854 40.886 91.5268 44.8801 95.8422 48.5987C98.1835 46.4869 100.066 44.1685 101.489 41.6435C102.912 39.1185 103.624 36.4787 103.624 33.7242C103.624 32.806 103.486 31.8879 103.211 30.9697C102.981 30.0056 102.499 28.9956 101.764 27.9397C101.764 27.8479 101.902 27.7561 102.178 27.6642C102.453 27.5265 102.706 27.4577 102.935 27.4577C103.578 27.4577 104.083 27.6872 104.45 28.1463C104.863 28.5595 105.162 29.0645 105.345 29.6613C105.575 30.2581 105.713 30.8779 105.758 31.5206C105.85 32.1174 105.896 32.5994 105.896 32.9667C105.896 35.9967 105.047 38.9349 103.348 41.7812C101.696 44.5817 99.5378 47.1526 96.8751 49.4939C101.328 53.3043 106.355 56.4032 111.956 58.7904C112.278 58.9741 112.438 59.1348 112.438 59.2725Z" fill="#FFA55C"/>
<path d="M13.9085 34.8759C13.9085 33.4417 13.8159 32.2503 13.6309 31.3019C13.4689 30.3535 13.2376 29.8792 12.9369 29.8792C12.7518 29.8792 12.5783 30.018 12.4164 30.2956C12.2545 30.5501 12.1157 30.9202 12 31.406C11.9075 31.8686 11.8265 32.4238 11.7571 33.0715C11.7109 33.6961 11.6877 34.3785 11.6877 35.1188C11.6877 36.4373 11.7803 37.86 11.9653 39.3867C12.1504 40.8904 12.4742 42.3477 12.9369 43.7588C13.2608 42.2783 13.5036 40.7631 13.6656 39.2132C13.8275 37.6402 13.9085 36.1944 13.9085 34.8759ZM28.4473 19.1226C28.4473 19.2383 28.401 19.3308 28.3085 19.4002C28.216 19.4696 28.1003 19.5506 27.9615 19.6431C27.2675 20.0595 26.7008 20.6378 26.2613 21.378C25.8217 22.1183 25.4632 22.9279 25.1856 23.8069C24.9311 24.686 24.7576 25.5882 24.6651 26.5135C24.5726 27.4156 24.5263 28.2484 24.5263 29.0118C24.5263 29.5438 24.5495 30.2031 24.5957 30.9896C24.6651 31.753 24.7345 32.5973 24.8039 33.5226C24.8964 34.4479 24.9658 35.4311 25.0121 36.472C25.0815 37.4899 25.1162 38.5308 25.1162 39.5949C25.1162 41.0985 25.0237 42.5559 24.8386 43.967C24.6767 45.3781 24.3413 46.6388 23.8323 47.7492C23.3466 48.8595 22.6641 49.7501 21.7851 50.421C20.9061 51.0918 19.761 51.4272 18.3499 51.4272C17.7022 51.4272 17.0892 51.3 16.5109 51.0456C15.9557 50.8142 15.4352 50.4788 14.9494 50.0393C14.4868 49.5998 14.0588 49.0908 13.6656 48.5125C13.2955 47.9342 12.96 47.2981 12.6593 46.6041C12.3586 47.4137 12 48.1655 11.5836 48.8595C11.1904 49.5535 10.7509 50.1549 10.2651 50.6639C9.7793 51.1728 9.24725 51.566 8.66894 51.8436C8.09063 52.1212 7.47761 52.26 6.8299 52.26C5.8352 52.26 4.99086 52.0056 4.29688 51.4966C3.62604 50.9877 3.07086 50.3169 2.63134 49.4841C2.19182 48.6745 1.84483 47.7492 1.59037 46.7082C1.35905 45.6441 1.18555 44.5684 1.06989 43.4812C0.954226 42.3708 0.873262 41.2952 0.826997 40.2542C0.803864 39.1901 0.780732 38.2532 0.757599 37.4436C0.711334 35.9862 0.734467 34.6099 0.826997 33.3144C0.94266 31.9959 1.06989 30.8161 1.20868 29.7751C1.34748 28.7111 1.48628 27.7973 1.62507 27.0339C1.76387 26.2706 1.8564 25.7038 1.90266 25.3337C1.92579 25.1949 2.06459 25.1024 2.31905 25.0561C2.59664 25.0098 2.83953 24.9867 3.04772 24.9867C3.20965 24.9867 3.34845 25.0098 3.46411 25.0561C3.57977 25.0792 3.6376 25.1486 3.6376 25.2643C3.6376 25.4031 3.57977 25.646 3.46411 25.993C3.34845 26.3168 3.17495 26.9414 2.94363 27.8667C2.8511 28.2831 2.747 28.8845 2.63134 29.6711C2.53881 30.4344 2.44628 31.3019 2.35375 32.2735C2.28435 33.245 2.22652 34.286 2.18025 35.3964C2.13399 36.4836 2.11085 37.5477 2.11085 38.5887C2.11085 39.3983 2.14555 40.2889 2.21495 41.2605C2.28435 42.2089 2.40001 43.1573 2.56194 44.1058C2.72387 45.0311 2.94363 45.9333 3.22122 46.8123C3.49881 47.6913 3.83423 48.4663 4.22749 49.1371C4.64387 49.808 5.12966 50.34 5.68484 50.7333C6.24002 51.1496 6.88773 51.3578 7.62797 51.3578C8.18316 51.3578 8.69207 51.219 9.15472 50.9415C9.61738 50.6639 10.0453 50.2706 10.4386 49.7617C10.8318 49.2759 11.1788 48.6976 11.4795 48.0268C11.8034 47.3559 12.0926 46.6272 12.347 45.8407C11.815 44.3834 11.4217 42.8335 11.1673 41.1911C10.9128 39.5487 10.7856 38.0335 10.7856 36.6455C10.7856 35.6277 10.8203 34.6214 10.8897 33.6267C10.9822 32.632 11.1094 31.7414 11.2714 30.9549C11.4333 30.1684 11.6415 29.5323 11.8959 29.0465C12.1504 28.5607 12.4511 28.3178 12.7981 28.3178C13.0757 28.3178 13.3186 28.4913 13.5268 28.8383C13.7581 29.1853 13.9432 29.6595 14.082 30.2609C14.2439 30.8624 14.3596 31.5795 14.429 32.4123C14.5215 33.2219 14.5677 34.1009 14.5677 35.0494C14.5677 36.5761 14.4636 38.1838 14.2555 39.8725C14.0473 41.5381 13.7234 43.1689 13.2839 44.7651C13.5846 45.5747 13.9316 46.3265 14.3249 47.0205C14.7181 47.6913 15.1576 48.2812 15.6434 48.7901C16.1523 49.299 16.7075 49.6923 17.309 49.9699C17.9335 50.2706 18.6159 50.421 19.3562 50.421C20.374 50.421 21.2068 50.1665 21.8545 49.6576C22.5022 49.1718 23.0111 48.501 23.3813 47.6451C23.7514 46.766 24.0058 45.7598 24.1446 44.6263C24.2834 43.4696 24.3528 42.232 24.3528 40.9135C24.3528 39.7337 24.3066 38.5193 24.214 37.2701C24.1446 36.0209 24.0637 34.7834 23.9711 33.5573C23.8786 32.3082 23.7861 31.1053 23.6935 29.9486C23.6241 28.7689 23.5895 27.6817 23.5895 26.687C23.5895 25.9698 23.6935 25.1371 23.9017 24.1886C24.1331 23.2402 24.4338 22.3496 24.8039 21.5168C25.1972 20.6609 25.6367 19.9438 26.1225 19.3655C26.6314 18.764 27.1634 18.4633 27.7186 18.4633C27.8805 18.4633 28.0425 18.5443 28.2044 18.7062C28.3663 18.845 28.4473 18.9838 28.4473 19.1226ZM39.2817 42.1626C39.2817 41.8157 39.2239 41.5381 39.1082 41.3299C38.9926 41.0985 38.8075 40.9829 38.5531 40.9829C38.1598 40.9829 37.8591 41.1795 37.6509 41.5728C37.4427 41.9429 37.3502 42.4171 37.3733 42.9954C37.4427 44.2214 37.6625 45.2508 38.0326 46.0836C38.4258 45.5516 38.7266 44.9501 38.9347 44.2793C39.1661 43.6084 39.2817 42.9029 39.2817 42.1626ZM48.6504 42.1279C48.4885 42.4749 48.315 42.8335 48.1299 43.2036C47.9449 43.5506 47.7367 43.8976 47.5054 44.2446C46.3256 46.0027 45.1343 47.3096 43.9314 48.1655C42.7285 49.0215 41.6066 49.4494 40.5656 49.4494C39.247 49.4494 38.2408 48.8248 37.5468 47.5757C36.7372 48.3853 35.8234 48.9983 34.8056 49.4147C33.8109 49.8311 32.8277 50.0393 31.8562 50.0393C31.2779 50.0393 30.7227 49.9583 30.1906 49.7964C29.6817 49.6345 29.2422 49.3916 28.8721 49.0677C28.4788 48.7207 28.1665 48.2928 27.9352 47.7839C27.7039 47.2518 27.5882 46.6388 27.5882 45.9448C27.5882 45.112 27.7848 44.2677 28.1781 43.4118C28.5482 42.5328 29.0687 41.7463 29.7396 41.0523C30.4335 40.3352 31.2432 39.7453 32.1685 39.2826C33.0938 38.82 34.1 38.5887 35.1873 38.5887C36.0663 38.5887 36.7487 38.7159 37.2345 38.9703C37.7203 39.2017 37.9632 39.4214 37.9632 39.6296C37.9632 39.7222 37.9169 39.7916 37.8244 39.8378C37.7319 39.8841 37.6509 39.9072 37.5815 39.9072C37.5584 39.8841 37.5352 39.8725 37.5121 39.8725H37.4774C37.1998 39.6181 36.8875 39.4214 36.5405 39.2826C36.1935 39.1207 35.6846 39.0397 35.0138 39.0397C34.1116 39.0397 33.2904 39.2364 32.5502 39.6296C31.833 39.9997 31.22 40.4971 30.7111 41.1217C30.2022 41.7231 29.8089 42.394 29.5314 43.1342C29.2538 43.8745 29.115 44.6031 29.115 45.3202C29.115 46.7082 29.4388 47.7145 30.0865 48.339C30.7343 48.9636 31.5439 49.2759 32.5155 49.2759C33.302 49.2759 34.1232 49.0793 34.9791 48.686C35.835 48.2928 36.5984 47.7376 37.2692 47.0205C36.8991 46.1877 36.714 45.1005 36.714 43.7588C36.714 42.8798 36.876 42.1164 37.1998 41.4687C37.5237 40.821 37.9863 40.4971 38.5878 40.4971C39.4205 40.4971 39.8369 40.9829 39.8369 41.9545C39.8369 42.926 39.6981 43.8051 39.4205 44.5916C39.1429 45.3549 38.7728 46.0489 38.3102 46.6735C38.9579 47.8764 39.8601 48.4778 41.0167 48.4778C41.8957 48.4778 42.8326 48.1077 43.8273 47.3675C44.8451 46.6272 45.8398 45.5516 46.8114 44.1405C47.0427 43.7935 47.2509 43.4349 47.436 43.0648C47.621 42.6947 47.8061 42.3246 47.9912 41.9545L48.6504 42.1279ZM53.47 26.6176C53.47 25.299 53.2503 24.2465 52.8108 23.46C52.3944 22.6503 51.6888 22.2455 50.6941 22.2455C50.3471 22.2455 50.0233 22.3612 49.7226 22.5925C49.445 22.8007 49.2021 23.0898 48.9939 23.46C48.7857 23.8301 48.6238 24.258 48.5081 24.7438C48.3924 25.2296 48.3346 25.7501 48.3346 26.3053C48.3346 27.832 48.3462 29.22 48.3693 30.4691C48.3924 31.7183 48.4156 32.898 48.4387 34.0084C48.485 35.1188 48.5312 36.1944 48.5775 37.2354C48.6238 38.2764 48.67 39.3405 48.7163 40.4277C49.3871 39.5255 50.0117 38.4961 50.59 37.3395C51.1684 36.1597 51.6657 34.9568 52.0821 33.7308C52.5216 32.4817 52.857 31.2441 53.0884 30.018C53.3428 28.792 53.47 27.6585 53.47 26.6176ZM66.031 42.1279C65.8691 42.4749 65.6956 42.8335 65.5106 43.2036C65.3486 43.5737 65.1404 43.9207 64.886 44.2446C63.6137 46.0489 62.1679 47.4716 60.5486 48.5125C58.9293 49.5304 57.3216 50.0393 55.7255 50.0393C54.7308 50.0393 53.7823 49.808 52.8802 49.3453C51.978 48.9058 51.1799 48.1887 50.4859 47.194C50.3934 47.0783 50.3471 46.9742 50.3471 46.8817C50.3471 46.6735 50.4859 46.5694 50.7635 46.5694C50.7867 46.5694 50.8676 46.5925 51.0064 46.6388C51.1915 46.6388 51.3997 46.7082 51.631 46.847C51.8855 46.9627 52.244 47.0205 52.7067 47.0205C53.4238 47.0205 54.0946 46.8933 54.7192 46.6388C55.3438 46.3843 55.8758 46.0605 56.3154 45.6672C56.778 45.2508 57.1366 44.7882 57.391 44.2793C57.6455 43.7472 57.7727 43.2036 57.7727 42.6484C57.7727 41.9544 57.5876 41.353 57.2175 40.8441C56.8705 40.3352 56.2691 40.0807 55.4132 40.0807C54.5341 40.0807 53.7245 40.393 52.9843 41.0176C52.244 41.619 51.5732 42.3593 50.9717 43.2383C50.3934 44.0942 49.8961 45.0079 49.4797 45.9795C49.0633 46.928 48.751 47.7607 48.5428 48.4778C48.4271 48.8711 48.323 49.114 48.2305 49.2065C48.138 49.299 48.0339 49.3453 47.9182 49.3453C47.6638 49.3453 47.5481 49.1024 47.5712 48.6166C47.5712 48.4084 47.5828 48.154 47.6059 47.8533C47.6291 47.5525 47.6522 47.2287 47.6753 46.8817C47.6753 46.5347 47.6869 46.1877 47.71 45.8407C47.7332 45.4706 47.7447 45.1352 47.7447 44.8345C47.7447 43.7935 47.7216 42.6022 47.6753 41.2605C47.6291 39.8957 47.5712 38.4961 47.5018 37.0619C47.4324 35.6046 47.3746 34.1588 47.3283 32.7246C47.2821 31.2903 47.259 29.9718 47.259 28.7689C47.259 27.8204 47.3283 26.9067 47.4671 26.0277C47.6059 25.1255 47.8257 24.339 48.1264 23.6681C48.4271 22.9742 48.8088 22.4306 49.2715 22.0373C49.7341 21.6209 50.2778 21.4127 50.9023 21.4127C51.55 21.4127 52.0937 21.5284 52.5332 21.7597C52.9958 21.9679 53.3659 22.2802 53.6435 22.6966C53.9211 23.0898 54.1178 23.5756 54.2334 24.1539C54.3722 24.7091 54.4416 25.3221 54.4416 25.993C54.4416 27.1496 54.2797 28.4219 53.9558 29.8098C53.632 31.1747 53.204 32.5511 52.672 33.939C52.1399 35.327 51.5269 36.6687 50.8329 37.9641C50.1621 39.2364 49.4681 40.3467 48.751 41.2952C48.7973 41.9891 48.8204 42.7063 48.8204 43.4465C48.8435 44.1867 48.8782 44.9733 48.9245 45.806C49.5028 44.5569 50.139 43.4812 50.8329 42.579C51.1337 42.1858 51.4691 41.8041 51.8392 41.434C52.2325 41.0407 52.6373 40.6937 53.0537 40.393C53.4932 40.0923 53.9558 39.8494 54.4416 39.6643C54.9505 39.4793 55.4826 39.3867 56.0378 39.3867C56.9168 39.3867 57.6802 39.6065 58.3279 40.046C58.9756 40.4855 59.2995 41.1911 59.2995 42.1626C59.2995 43.0879 59.0681 43.8745 58.6055 44.5222C58.166 45.1699 57.6108 45.7135 56.9399 46.153C56.2691 46.5694 55.552 46.8817 54.7886 47.0899C54.0252 47.2981 53.3313 47.4253 52.7067 47.4716C52.6604 47.4716 52.6373 47.4831 52.6373 47.5063C52.6373 47.5525 52.672 47.6219 52.7414 47.7145C53.204 48.2465 53.7245 48.6282 54.3028 48.8595C54.8811 49.0908 55.4826 49.2065 56.1072 49.2065C56.8705 49.2065 57.6455 49.0677 58.432 48.7901C59.2185 48.4894 59.9703 48.1077 60.6874 47.6451C61.4045 47.1593 62.0638 46.6157 62.6652 46.0142C63.2898 45.3896 63.7987 44.7651 64.192 44.1405C64.4233 43.7935 64.6315 43.4349 64.8166 43.0648C65.0016 42.6947 65.1867 42.3246 65.3718 41.9545L66.031 42.1279ZM70.9228 39.9766C70.9228 39.352 70.7608 38.8431 70.437 38.4499C70.1362 38.0335 69.6389 37.8253 68.9449 37.8253C68.5748 37.8253 68.2394 37.9409 67.9387 38.1723C67.6379 38.4036 67.3835 38.7159 67.1753 39.1091C66.9671 39.4793 66.8052 39.9188 66.6895 40.4277C66.5738 40.9366 66.516 41.4687 66.516 42.0238C66.516 42.9029 66.6085 43.6894 66.7936 44.3834C67.0018 45.0542 67.2909 45.6441 67.6611 46.153C68.1468 45.7598 68.5864 45.3087 68.9796 44.7998C69.3729 44.2908 69.7083 43.7588 69.9859 43.2036C70.2866 42.6484 70.5179 42.0932 70.6799 41.5381C70.8418 40.9829 70.9228 40.4624 70.9228 39.9766ZM79.7016 42.1279C79.5396 42.4749 79.3661 42.8335 79.1811 43.2036C79.0192 43.5506 78.811 43.8976 78.5565 44.2446C77.423 45.8639 76.1276 47.0899 74.6702 47.9227C73.236 48.7323 71.8596 49.1371 70.5411 49.1371C69.8008 49.1371 69.1068 49.0099 68.4591 48.7554C67.8346 48.501 67.2909 48.1193 66.8283 47.6104C66.3656 47.1014 65.9955 46.4653 65.7179 45.7019C65.4403 44.9386 65.3015 44.0364 65.3015 42.9954C65.3015 42.3014 65.4056 41.6075 65.6138 40.9135C65.822 40.2195 66.0996 39.5949 66.4466 39.0397C66.8167 38.4846 67.2331 38.0335 67.6958 37.6865C68.1815 37.3395 68.6905 37.166 69.2225 37.166C70.0784 37.166 70.703 37.4205 71.0963 37.9294C71.4895 38.4152 71.6861 39.0397 71.6861 39.8031C71.6861 40.8441 71.3623 41.9776 70.7146 43.2036C70.09 44.4065 69.1878 45.5284 68.0081 46.5694C68.8871 47.5641 70.0206 48.0614 71.4085 48.0614C72.4495 48.0614 73.5367 47.7492 74.6702 47.1246C75.8037 46.4769 76.8678 45.4822 77.8625 44.1405C78.117 43.8166 78.3252 43.4696 78.4871 43.0995C78.6722 42.7063 78.8572 42.3246 79.0423 41.9545L79.7016 42.1279ZM109.763 33.3838C108.907 33.3838 108.086 33.4764 107.3 33.6614C106.536 33.8465 105.854 34.0662 105.252 34.3207C104.674 34.5752 104.2 34.8412 103.83 35.1188C103.483 35.3964 103.309 35.6393 103.309 35.8475C103.309 36.125 103.633 36.2638 104.281 36.2638C105.391 36.2638 106.444 35.9978 107.438 35.4658C108.456 34.9337 109.37 34.2397 110.18 33.3838H109.763ZM119.861 38.5887C119.861 39.7222 119.537 40.9482 118.889 42.2667C118.264 43.5853 117.397 44.8923 116.287 46.1877C115.176 47.4831 113.858 48.7323 112.331 49.9352C110.804 51.1381 109.162 52.2022 107.404 53.1275C105.646 54.0528 103.795 54.7815 101.852 55.3135C99.9088 55.8687 97.9656 56.1463 96.0225 56.1463C95.6987 56.1463 95.3401 56.1347 94.9468 56.1116C94.5767 56.0885 94.2297 56.0306 93.9059 55.9381C93.582 55.8687 93.3044 55.7415 93.0731 55.5564C92.8418 55.3945 92.7261 55.1632 92.7261 54.8624C92.7261 54.446 92.9343 54.0412 93.3507 53.648C93.7671 53.2778 94.2991 52.9309 94.9468 52.607C95.5946 52.2831 96.3001 51.994 97.0635 51.7395C97.8268 51.4851 98.5555 51.2653 99.2495 51.0803C99.9666 50.8952 100.591 50.7448 101.123 50.6292C101.655 50.5366 102.014 50.4904 102.199 50.4904C102.338 50.4904 102.442 50.5251 102.511 50.5945C102.581 50.6639 102.615 50.7333 102.615 50.8027C102.615 50.9183 102.557 50.9762 102.442 50.9762H101.991C101.389 50.9762 100.626 51.0918 99.7006 51.3231C98.7753 51.5545 97.8731 51.8436 96.9941 52.1906C96.115 52.5376 95.3632 52.9193 94.7386 53.3357C94.1141 53.7752 93.8018 54.18 93.8018 54.5501C93.8018 54.8046 93.8827 55.0012 94.0447 55.14C94.2297 55.3019 94.4495 55.4292 94.704 55.5217C94.9584 55.6142 95.2244 55.6721 95.502 55.6952C95.7796 55.7415 96.0225 55.7646 96.2307 55.7646C97.8731 55.7646 99.5502 55.487 101.262 54.9318C102.997 54.3766 104.674 53.6364 106.293 52.7111C107.936 51.8089 109.474 50.7564 110.908 49.5535C112.366 48.3737 113.638 47.1477 114.725 45.8754C115.812 44.58 116.668 43.2961 117.293 42.0238C117.917 40.7284 118.23 39.5255 118.23 38.4152C118.23 37.0503 117.663 35.9168 116.53 35.0147C115.419 34.0894 113.58 33.5573 111.012 33.4185C109.971 34.3901 108.826 35.1766 107.577 35.7781C106.351 36.3795 105.102 36.6802 103.83 36.6802C102.928 36.6802 102.476 36.4605 102.476 36.0209C102.476 35.7434 102.662 35.4311 103.032 35.0841C103.425 34.714 103.957 34.367 104.628 34.0431C105.322 33.7193 106.143 33.4532 107.091 33.245C108.04 33.0137 109.081 32.898 110.214 32.898H110.631C111.394 31.9959 112.007 31.0127 112.47 29.9486C112.932 28.8614 113.164 27.7973 113.164 26.7563C113.164 26.0624 113.037 25.4031 112.782 24.7785C112.551 24.1308 112.157 23.5756 111.602 23.113C111.07 22.6503 110.365 22.2802 109.486 22.0026C108.63 21.725 107.589 21.5862 106.363 21.5862C105.53 21.5862 104.373 21.7019 102.893 21.9332C101.436 22.1645 99.8509 22.5231 98.1391 23.0089C96.4505 23.4715 94.7271 24.0614 92.969 24.7785C91.2109 25.4956 89.6148 26.3284 88.1806 27.2768C86.7463 28.2253 85.5781 29.3009 84.676 30.5038C83.7738 31.7067 83.3227 33.0368 83.3227 34.4942C83.3227 34.6793 83.288 34.8412 83.2186 34.98C83.1492 35.0956 83.0798 35.1535 83.0104 35.1535C82.9179 35.1535 82.8485 35.0609 82.8022 34.8759C82.7328 34.6677 82.6981 34.3323 82.6981 33.8696C82.9063 32.366 83.5194 31.0012 84.5372 29.7751C85.555 28.5491 86.8157 27.4619 88.3194 26.5135C89.7998 25.5419 91.4307 24.7091 93.2119 24.0151C94.9931 23.3212 96.7512 22.7544 98.4861 22.3149C100.244 21.8522 101.875 21.5168 103.379 21.3086C104.905 21.0773 106.155 20.9616 107.126 20.9616C108.537 20.9616 109.729 21.1004 110.7 21.378C111.695 21.6325 112.504 21.991 113.129 22.4537C113.754 22.8932 114.205 23.4253 114.482 24.0498C114.76 24.6744 114.899 25.3337 114.899 26.0277C114.899 27.1612 114.586 28.3409 113.962 29.567C113.36 30.7698 112.539 31.8918 111.498 32.9327C112.979 33.0021 114.251 33.1988 115.315 33.5226C116.379 33.8233 117.247 34.2282 117.917 34.7371C118.588 35.2229 119.074 35.8012 119.375 36.472C119.699 37.1197 119.861 37.8253 119.861 38.5887ZM101.47 47.7145C101.47 48.0383 101.447 48.2696 101.401 48.4084C101.355 48.5472 101.227 48.6166 101.019 48.6166C100.556 48.6629 100.325 48.2002 100.325 47.2287C100.302 44.0364 100.267 41.1217 100.221 38.4846C100.198 35.8475 100.163 33.5689 100.117 31.6489C100.094 29.7058 100.071 28.1674 100.048 27.0339C100.024 25.9004 100.013 25.2527 100.013 25.0908C100.013 24.9057 100.071 24.7785 100.186 24.7091C100.302 24.6397 100.441 24.5819 100.603 24.5356C100.788 24.5356 100.927 24.5935 101.019 24.7091C101.135 24.8248 101.193 24.9636 101.193 25.1255C101.193 26.9761 101.204 28.8845 101.227 30.8508C101.25 32.794 101.274 34.7371 101.297 36.6802C101.343 38.6234 101.378 40.5318 101.401 42.4055C101.447 44.2793 101.47 46.0489 101.47 47.7145ZM133.348 42.1626C133.348 41.8157 133.29 41.5381 133.175 41.3299C133.059 41.0985 132.874 40.9829 132.62 40.9829C132.226 40.9829 131.926 41.1795 131.717 41.5728C131.509 41.9429 131.417 42.4171 131.44 42.9954C131.509 44.2214 131.729 45.2508 132.099 46.0836C132.492 45.5516 132.793 44.9501 133.001 44.2793C133.233 43.6084 133.348 42.9029 133.348 42.1626ZM142.717 42.1279C142.555 42.4749 142.381 42.8335 142.196 43.2036C142.011 43.5506 141.803 43.8976 141.572 44.2446C140.392 46.0027 139.201 47.3096 137.998 48.1655C136.795 49.0215 135.673 49.4494 134.632 49.4494C133.313 49.4494 132.307 48.8248 131.613 47.5757C130.804 48.3853 129.89 48.9983 128.872 49.4147C127.877 49.8311 126.894 50.0393 125.923 50.0393C125.344 50.0393 124.789 49.9583 124.257 49.7964C123.748 49.6345 123.309 49.3916 122.939 49.0677C122.545 48.7207 122.233 48.2928 122.002 47.7839C121.77 47.2518 121.655 46.6388 121.655 45.9448C121.655 45.112 121.851 44.2677 122.245 43.4118C122.615 42.5328 123.135 41.7463 123.806 41.0523C124.5 40.3352 125.31 39.7453 126.235 39.2826C127.16 38.82 128.166 38.5887 129.254 38.5887C130.133 38.5887 130.815 38.7159 131.301 38.9703C131.787 39.2017 132.03 39.4214 132.03 39.6296C132.03 39.7222 131.983 39.7916 131.891 39.8378C131.798 39.8841 131.717 39.9072 131.648 39.9072C131.625 39.8841 131.602 39.8725 131.579 39.8725H131.544C131.266 39.6181 130.954 39.4214 130.607 39.2826C130.26 39.1207 129.751 39.0397 129.08 39.0397C128.178 39.0397 127.357 39.2364 126.617 39.6296C125.899 39.9997 125.286 40.4971 124.778 41.1217C124.269 41.7231 123.875 42.394 123.598 43.1342C123.32 43.8745 123.181 44.6031 123.181 45.3202C123.181 46.7082 123.505 47.7145 124.153 48.339C124.801 48.9636 125.61 49.2759 126.582 49.2759C127.368 49.2759 128.19 49.0793 129.046 48.686C129.901 48.2928 130.665 47.7376 131.336 47.0205C130.966 46.1877 130.78 45.1005 130.78 43.7588C130.78 42.8798 130.942 42.1164 131.266 41.4687C131.59 40.821 132.053 40.4971 132.654 40.4971C133.487 40.4971 133.903 40.9829 133.903 41.9545C133.903 42.926 133.765 43.8051 133.487 44.5916C133.209 45.3549 132.839 46.0489 132.377 46.6735C133.024 47.8764 133.926 48.4778 135.083 48.4778C135.962 48.4778 136.899 48.1077 137.894 47.3675C138.912 46.6272 139.906 45.5516 140.878 44.1405C141.109 43.7935 141.317 43.4349 141.502 43.0648C141.687 42.6947 141.873 42.3246 142.058 41.9545L142.717 42.1279ZM147.536 26.6176C147.536 25.299 147.317 24.2465 146.877 23.46C146.461 22.6503 145.755 22.2455 144.761 22.2455C144.414 22.2455 144.09 22.3612 143.789 22.5925C143.511 22.8007 143.269 23.0898 143.06 23.46C142.852 23.8301 142.69 24.258 142.575 24.7438C142.459 25.2296 142.401 25.7501 142.401 26.3053C142.401 27.832 142.413 29.22 142.436 30.4691C142.459 31.7183 142.482 32.898 142.505 34.0084C142.551 35.1188 142.598 36.1944 142.644 37.2354C142.69 38.2764 142.736 39.3405 142.783 40.4277C143.454 39.5255 144.078 38.4961 144.656 37.3395C145.235 36.1597 145.732 34.9568 146.149 33.7308C146.588 32.4817 146.923 31.2441 147.155 30.018C147.409 28.792 147.536 27.6585 147.536 26.6176ZM160.097 42.1279C159.936 42.4749 159.762 42.8335 159.577 43.2036C159.415 43.5737 159.207 43.9207 158.952 44.2446C157.68 46.0489 156.234 47.4716 154.615 48.5125C152.996 49.5304 151.388 50.0393 149.792 50.0393C148.797 50.0393 147.849 49.808 146.947 49.3453C146.044 48.9058 145.246 48.1887 144.552 47.194C144.46 47.0783 144.414 46.9742 144.414 46.8817C144.414 46.6735 144.552 46.5694 144.83 46.5694C144.853 46.5694 144.934 46.5925 145.073 46.6388C145.258 46.6388 145.466 46.7082 145.697 46.847C145.952 46.9627 146.31 47.0205 146.773 47.0205C147.49 47.0205 148.161 46.8933 148.786 46.6388C149.41 46.3843 149.942 46.0605 150.382 45.6672C150.844 45.2508 151.203 44.7882 151.457 44.2793C151.712 43.7472 151.839 43.2036 151.839 42.6484C151.839 41.9544 151.654 41.353 151.284 40.8441C150.937 40.3352 150.336 40.0807 149.48 40.0807C148.601 40.0807 147.791 40.393 147.051 41.0176C146.31 41.619 145.64 42.3593 145.038 43.2383C144.46 44.0942 143.963 45.0079 143.546 45.9795C143.13 46.928 142.817 47.7607 142.609 48.4778C142.494 48.8711 142.389 49.114 142.297 49.2065C142.204 49.299 142.1 49.3453 141.985 49.3453C141.73 49.3453 141.615 49.1024 141.638 48.6166C141.638 48.4084 141.649 48.154 141.672 47.8533C141.696 47.5525 141.719 47.2287 141.742 46.8817C141.742 46.5347 141.753 46.1877 141.776 45.8407C141.8 45.4706 141.811 45.1352 141.811 44.8345C141.811 43.7935 141.788 42.6022 141.742 41.2605C141.696 39.8957 141.638 38.4961 141.568 37.0619C141.499 35.6046 141.441 34.1588 141.395 32.7246C141.349 31.2903 141.325 29.9718 141.325 28.7689C141.325 27.8204 141.395 26.9067 141.534 26.0277C141.672 25.1255 141.892 24.339 142.193 23.6681C142.494 22.9742 142.875 22.4306 143.338 22.0373C143.801 21.6209 144.344 21.4127 144.969 21.4127C145.616 21.4127 146.16 21.5284 146.6 21.7597C147.062 21.9679 147.432 22.2802 147.71 22.6966C147.988 23.0898 148.184 23.5756 148.3 24.1539C148.439 24.7091 148.508 25.3221 148.508 25.993C148.508 27.1496 148.346 28.4219 148.022 29.8098C147.698 31.1747 147.27 32.5511 146.738 33.939C146.206 35.327 145.593 36.6687 144.899 37.9641C144.229 39.2364 143.535 40.3467 142.817 41.2952C142.864 41.9891 142.887 42.7063 142.887 43.4465C142.91 44.1867 142.945 44.9733 142.991 45.806C143.569 44.5569 144.205 43.4812 144.899 42.579C145.2 42.1858 145.536 41.8041 145.906 41.434C146.299 41.0407 146.704 40.6937 147.12 40.393C147.56 40.0923 148.022 39.8494 148.508 39.6643C149.017 39.4793 149.549 39.3867 150.104 39.3867C150.983 39.3867 151.747 39.6065 152.394 40.046C153.042 40.4855 153.366 41.1911 153.366 42.1626C153.366 43.0879 153.135 43.8745 152.672 44.5222C152.232 45.1699 151.677 45.7135 151.006 46.153C150.336 46.5694 149.618 46.8817 148.855 47.0899C148.092 47.2981 147.398 47.4253 146.773 47.4716C146.727 47.4716 146.704 47.4831 146.704 47.5063C146.704 47.5525 146.738 47.6219 146.808 47.7145C147.27 48.2465 147.791 48.6282 148.369 48.8595C148.948 49.0908 149.549 49.2065 150.174 49.2065C150.937 49.2065 151.712 49.0677 152.498 48.7901C153.285 48.4894 154.037 48.1077 154.754 47.6451C155.471 47.1593 156.13 46.6157 156.732 46.0142C157.356 45.3896 157.865 44.7651 158.258 44.1405C158.49 43.7935 158.698 43.4349 158.883 43.0648C159.068 42.6947 159.253 42.3246 159.438 41.9545L160.097 42.1279ZM164.989 39.9766C164.989 39.352 164.827 38.8431 164.503 38.4499C164.203 38.0335 163.705 37.8253 163.011 37.8253C162.641 37.8253 162.306 37.9409 162.005 38.1723C161.704 38.4036 161.45 38.7159 161.242 39.1091C161.034 39.4793 160.872 39.9188 160.756 40.4277C160.64 40.9366 160.582 41.4687 160.582 42.0238C160.582 42.9029 160.675 43.6894 160.86 44.3834C161.068 45.0542 161.357 45.6441 161.728 46.153C162.213 45.7598 162.653 45.3087 163.046 44.7998C163.439 44.2908 163.775 43.7588 164.052 43.2036C164.353 42.6484 164.584 42.0932 164.746 41.5381C164.908 40.9829 164.989 40.4624 164.989 39.9766ZM173.768 42.1279C173.606 42.4749 173.433 42.8335 173.248 43.2036C173.086 43.5506 172.877 43.8976 172.623 44.2446C171.489 45.8639 170.194 47.0899 168.737 47.9227C167.302 48.7323 165.926 49.1371 164.608 49.1371C163.867 49.1371 163.173 49.0099 162.526 48.7554C161.901 48.501 161.357 48.1193 160.895 47.6104C160.432 47.1014 160.062 46.4653 159.784 45.7019C159.507 44.9386 159.368 44.0364 159.368 42.9954C159.368 42.3014 159.472 41.6075 159.68 40.9135C159.888 40.2195 160.166 39.5949 160.513 39.0397C160.883 38.4846 161.3 38.0335 161.762 37.6865C162.248 37.3395 162.757 37.166 163.289 37.166C164.145 37.166 164.769 37.4205 165.163 37.9294C165.556 38.4152 165.753 39.0397 165.753 39.8031C165.753 40.8441 165.429 41.9776 164.781 43.2036C164.156 44.4065 163.254 45.5284 162.075 46.5694C162.954 47.5641 164.087 48.0614 165.475 48.0614C166.516 48.0614 167.603 47.7492 168.737 47.1246C169.87 46.4769 170.934 45.4822 171.929 44.1405C172.183 43.8166 172.392 43.4696 172.554 43.0995C172.739 42.7063 172.924 42.3246 173.109 41.9545L173.768 42.1279Z" fill="#1F1711"/>
</svg>
